<?xml version="1.0" encoding="UTF-8"?>
<svg width="14px" height="19px" viewBox="0 0 14 19" version="1.1" xmlns="http://www.w3.org/2000/svg" xmlns:xlink="http://www.w3.org/1999/xlink">
    <!-- Generator: Sketch 42 (36781) - http://www.bohemiancoding.com/sketch -->
    <title>Group</title>
    <desc>Created with Sketch.</desc>
    <defs></defs>
    <g id="MAIN-PAGE" stroke="none" stroke-width="1" fill="none" fill-rule="evenodd">
        <g id="Desktop-Copy" transform="translate(-69.000000, -269.000000)" fill-rule="nonzero" fill="#606060">
            <g id="Вход" transform="translate(31.000000, 112.000000)">
                <g id="Group-3" transform="translate(25.000000, 86.000000)">
                    <g id="password" transform="translate(0.000000, 61.000000)">
                        <g id="flaticon1500280030-svg" transform="translate(13.000000, 10.000000)">
                            <g id="Layer_1">
                                <g id="Group">
                                    <path d="M6.08095833,13.148334 L5.83563021,15.3938223 C5.82348958,15.5055215 5.85878125,15.6176289 5.93246354,15.7015332 C6.00614583,15.7854004 6.11172917,15.8333457 6.22223437,15.8333457 L7.77780208,15.8333457 C7.88830729,15.8333457 7.99389062,15.7854004 8.06757292,15.7015332 C8.14125521,15.617666 8.17658333,15.5055586 8.16440625,15.3938223 L7.91907812,13.148334 C8.31745833,12.8533887 8.55556771,12.3868125 8.55556771,11.875 C8.55556771,11.0017793 7.8579375,10.2916543 7,10.2916543 C6.1420625,10.2916543 5.44443229,11.0017793 5.44443229,11.875 C5.44443229,12.3868125 5.68257812,12.8533887 6.08095833,13.148334 Z M7,11.0833457 C7.42875,11.0833457 7.77776563,11.4385938 7.77776563,11.875 C7.77776563,12.1784434 7.60838021,12.4501953 7.33570833,12.5847168 C7.18721354,12.6581563 7.10026042,12.818209 7.11848958,12.984793 L7.34332813,15.0416543 L6.65670833,15.0416543 L6.88154688,12.984793 C6.89977604,12.8181719 6.81282292,12.6581563 6.66432813,12.5847168 C6.39165625,12.4501953 6.22227083,12.1784434 6.22227083,11.875 C6.22223438,11.4385938 6.57125,11.0833457 7,11.0833457 Z" id="Shape"></path>
                                    <path d="M13.611099,7.125 L12.4444323,7.125 L12.4444323,5.5416543 C12.4444323,2.48595703 10.002125,0 7,0 C3.997875,0 1.55556771,2.48595703 1.55556771,5.5416543 L1.55556771,7.125 L0.388901042,7.125 C0.173942708,7.125 0,7.30204883 0,7.5208457 L0,17.4166914 C0,18.2899121 0.697630208,19 1.55556771,19 L12.4444687,19 C13.3023698,19 14,18.2899121 14,17.4166543 L14,7.5208457 C14,7.30204883 13.8260573,7.125 13.611099,7.125 Z M2.33333333,5.5416543 C2.33333333,2.92236328 4.42666146,0.791654297 7,0.791654297 C9.57333854,0.791654297 11.6666667,2.92236328 11.6666667,5.5416543 L11.6666667,7.125 L10.888901,7.125 L10.888901,5.5416543 C10.888901,3.35914062 9.14422396,1.58330859 7,1.58330859 C4.85577604,1.58330859 3.11109896,3.35917773 3.11109896,5.5416543 L3.11109896,7.125 L2.33333333,7.125 L2.33333333,5.5416543 Z M10.111099,5.5416543 L10.111099,7.125 L3.88890104,7.125 L3.88890104,5.5416543 C3.88890104,3.79558398 5.2845625,2.375 7,2.375 C8.7154375,2.375 10.111099,3.79558398 10.111099,5.5416543 Z M13.2222344,17.4166543 C13.2222344,17.8530605 12.8732187,18.2083086 12.4444687,18.2083086 L1.55556771,18.2083086 C1.12681771,18.2083086 0.777802083,17.8530605 0.777802083,17.4166543 L0.777802083,7.9166543 L13.2222344,7.9166543 L13.2222344,17.4166543 L13.2222344,17.4166543 Z" id="Shape"></path>
                                </g>
                            </g>
                        </g>
                    </g>
                </g>
            </g>
        </g>
    </g>
</svg>