<?xml version="1.0" encoding="UTF-8"?>
<svg width="18px" height="14px" viewBox="0 0 18 14" version="1.1" xmlns="http://www.w3.org/2000/svg" xmlns:xlink="http://www.w3.org/1999/xlink">
    <!-- Generator: Sketch 42 (36781) - http://www.bohemiancoding.com/sketch -->
    <title>Group</title>
    <desc>Created with Sketch.</desc>
    <defs></defs>
    <g id="MAIN-PAGE" stroke="none" stroke-width="1" fill="none" fill-rule="evenodd">
        <g id="login" transform="translate(-66.000000, -210.000000)" fill-rule="nonzero" fill="#606060">
            <g id="Вход" transform="translate(31.000000, 112.000000)">
                <g id="Group-3" transform="translate(25.000000, 86.000000)">
                    <g id="Email">
                        <g id="flaticon1500279846-svg" transform="translate(10.000000, 12.000000)">
                            <g id="Capa_1">
                                <g id="Group">
                                    <path d="M15.7797521,0.0284552846 L2.19793388,0.0284552846 C0.98553719,0.0284552846 0,1.03387534 0,2.27073171 L0,11.7406504 C0,12.9775068 0.98553719,13.9829268 2.19793388,13.9829268 L15.7760331,13.9829268 C16.9884298,13.9829268 17.9739669,12.9775068 17.9739669,11.7406504 L17.9739669,2.27452575 C17.977686,1.03766938 16.9921488,0.0284552846 15.7797521,0.0284552846 Z M16.9735537,11.7406504 C16.9735537,12.4121951 16.4380165,12.9585366 15.7797521,12.9585366 L2.19793388,12.9585366 C1.53966942,12.9585366 1.00413223,12.4121951 1.00413223,11.7406504 L1.00413223,2.27452575 C1.00413223,1.60298103 1.53966942,1.05663957 2.19793388,1.05663957 L15.7760331,1.05663957 C16.4342975,1.05663957 16.9698347,1.60298103 16.9698347,2.27452575 L16.9698347,11.7406504 L16.9735537,11.7406504 Z" id="Shape"></path>
                                    <path d="M11.3355372,6.88807588 L15.731405,2.86639566 C15.9359504,2.67669377 15.9545455,2.35420054 15.768595,2.14173442 C15.5826446,1.93306233 15.2665289,1.91409214 15.0582645,2.10379404 L8.99628099,7.65447154 L7.81363636,6.57696477 C7.80991736,6.57317073 7.80619835,6.56937669 7.80619835,6.56558266 C7.78016529,6.53902439 7.75413223,6.51626016 7.72438017,6.49349593 L2.91198347,2.1 C2.70371901,1.9102981 2.38760331,1.92926829 2.20165289,2.14173442 C2.01570248,2.35420054 2.03429752,2.67669377 2.24256198,2.86639566 L6.69049587,6.92222222 L2.26115702,11.1525745 C2.06033058,11.3460705 2.04917355,11.6685637 2.23884298,11.8772358 C2.3392562,11.9834688 2.4731405,12.0403794 2.60702479,12.0403794 C2.72975207,12.0403794 2.85247934,11.9948509 2.94917355,11.903794 L7.44545455,7.61273713 L8.66528926,8.72439024 C8.76198347,8.81165312 8.88099174,8.85338753 9,8.85338753 C9.11900826,8.85338753 9.24173554,8.80785908 9.33471074,8.72059621 L10.5880165,7.57479675 L15.0582645,11.9075881 C15.1549587,12.002439 15.281405,12.0479675 15.4041322,12.0479675 C15.5380165,12.0479675 15.6681818,11.9948509 15.768595,11.8886179 C15.9582645,11.6837398 15.9508264,11.3574526 15.75,11.1639566 L11.3355372,6.88807588 Z" id="Shape"></path>
                                </g>
                            </g>
                        </g>
                    </g>
                </g>
            </g>
        </g>
    </g>
</svg>